<svg version="1.1" xmlns="http://www.w3.org/2000/svg" x="0" y="0" viewBox="0 0 55.8 59.8" xml:space="preserve"><style>.st0{fill:none;stroke:#000;stroke-miterlimit:10}</style><path d="M33.8 35.8c0-1.3-.9-2.5-2.1-2.9.7-.9 1.1-2 1.1-3.1 0-2.4-1.7-4.4-4-4.9v-.1c0-2.8-2.2-5-5-5-.6 0-1.2.1-1.8.3-1.5-2.3-4.5-3-6.9-1.6-.9.5-1.5 1.3-1.9 2.3-2.5-.2-4.8 1.5-5.3 4h-.1c-2.8 0-5 2.2-5 5 0 1.1.4 2.3 1.1 3.1-1.6.5-2.5 2.1-2 3.7.3 1 1 1.7 2 2l1.9 20.3c.1.5.5.9 1 .9h22c.5 0 .9-.4 1-.9l1.9-20.3c1.2-.4 2.1-1.5 2.1-2.8zm-26-9c.3 0 .5 0 .8.1.5.1 1.1-.2 1.2-.7v-.4c0-1.7 1.3-3 3-3 .3 0 .6 0 .8.1.5.2 1.1-.2 1.2-.7v-.1c.3-1.6 1.9-2.7 3.5-2.3 1 .2 1.9 1 2.2 2 .2.5.8.8 1.3.6.1 0 .2-.1.2-.1 1.3-.9 3.2-.6 4.1.7.5.7.7 1.7.4 2.5-.1.5.2 1.1.7 1.2h.4c1.7 0 3 1.3 3 3s-1.3 3-3 3h-20c-1.7 0-3-1.3-3-3 .2-1.6 1.5-2.9 3.2-2.9zm-3 8h26c.6 0 1 .4 1 1s-.4 1-1 1h-26c-.6 0-1-.4-1-1s.4-1 1-1zm9.1 4l1.8 19h-3l-1.8-19h3zm2 0h3l1.8 19h-3l-1.8-19zm5 0h3l1.8 19h-3l-1.8-19zm-15 0h3l1.8 19h-3l-1.8-19zm22 19h-.2l-1.8-19h3.8l-1.8 19zM6 23c.3-.1.5-.3.6-.5 1-1.9 2.9-3.3 5-3.6.2 0 .5-.2.6-.4 1-1.2 2.3-2.1 3.8-2.5l-.5-1.9c-1.8.5-3.4 1.5-4.6 2.9-2.4.5-4.6 2-5.9 4.2-2.1.7-3.9 2.1-5 4.1l1.7 1c1-1.6 2.5-2.8 4.3-3.3z"/><path d="M9.8 28.8h2v2h-2zM16.8 23.8h2v2h-2zM21.8 28.8h2v2h-2z"/><path d="M55.8 12.8c0-1.7-1.3-3-3-3h-14V5.3l4.6-3.7L42.2 0l-5 4c-.2.2-.4.5-.4.8v5h-14c-1.7 0-3 1.3-3 3 0 1.3.8 2.4 2.1 2.8l.2 2.2 2-.1-.1-1.9h27.9l-.9 13h-7c-1.5-1.9-3.8-3-6.2-3-1.2 0-2.4.3-3.4.8l.9 1.8c.8-.4 1.7-.6 2.6-.6 2 0 3.8 1 4.9 2.6.2.3.5.4.8.4h7.2l-.4 6h-6.8c-.3 0-.6.2-.8.4-1.1 1.6-3 2.6-4.9 2.6-.9 0-1.8-.2-2.6-.6l-.9 1.8c1.1.5 2.2.8 3.4.8 2.4 0 4.7-1.1 6.2-3h6.1l-1.3 19h-17v2h18c.5 0 1-.4 1-.9l2.9-43.2c1.3-.5 2.1-1.6 2.1-2.9zm-33-1h30c.6 0 1 .4 1 1s-.4 1-1 1h-30c-.6 0-1-.4-1-1s.4-1 1-1z"/><circle class="st0" cx="45.8" cy="21.1" r="1.3"/><circle class="st0" cx="36.3" cy="50" r="1.3"/><circle class="st0" cx="44.3" cy="46" r="1.3"/></svg>